<?xml version="1.0" encoding="iso-8859-1"?>
<!-- Generator: Adobe Illustrator 21.0.0, SVG Export Plug-In . SVG Version: 6.00 Build 0)  -->
<svg version="1.1" id="Layer_1" xmlns="http://www.w3.org/2000/svg" xmlns:xlink="http://www.w3.org/1999/xlink" x="0px" y="0px"
	 viewBox="-49 141 512 512" style="enable-background:new -49 141 512 512;" xml:space="preserve">
<g>
	<rect x="439" y="629" style="fill:#FFFFFF;" width="16" height="16"/>
	<path style="fill:#FFFFFF;" d="M455,325v-16H295v16h16v72h-16v16h16v72h-24.8l-30.312-288H271v-48h-96v48h15.112L159.8,485h-13.08
		L22.664,337.68C20.976,321.608,7.512,309-9,309c-17.648,0-32,14.352-32,32c0,14.872,10.232,27.288,24,30.864V629h-24v16h464v-16
		h-16v-80h48v-64h-16v-72h16v-16h-16v-72H455z M254.112,333l5.984,56.816L208.96,333H254.112z M251.24,305.68L214.368,253h31.328
		L251.24,305.68z M199.592,259.792L239.632,317h-46.064L199.592,259.792z M245.04,397h-59.888l6.272-59.576L245.04,397z
		 M262.536,413l7.088,67.312L202.312,413H262.536z M191,181v-16h64v16h-0.8h-62.4H191z M239.8,197l4.208,40h-42.016l4.208-40H239.8z
		 M183.104,416.416L251.688,485H175.88L183.104,416.416z M91.208,485l-11-16h32.12l13.472,16H91.208z M18.344,357.384l15.512,18.424
		l-23.04-9.872C13.808,363.544,16.36,360.68,18.344,357.384z M56.784,403.032l6.504,7.72l-8.504,21.256l-29.08-42.296
		L56.784,403.032z M74.968,424.632L98.856,453H69.208l-3.536-5.144L74.968,424.632z M-25,341c0-8.824,7.176-16,16-16s16,7.176,16,16
		s-7.176,16-16,16S-25,349.824-25,341z M-1,379.12l48.64,70.744l-0.064,0.168l0.248,0.096L71.792,485H15v64h48v80H-1V379.12z
		 M311,629H159v-80h152V629z M143,597h-8v16h8v16H79v-16h40v-16H79v-48h64V597z M391,597h-8v16h8v16h-64v-16h40v-16h-40v-48h64V597z
		 M439,533H31v-32h127.12h129.76H439V533z M423,485h-96v-72h96V485z M423,397h-96v-72h96V397z"/>
	<rect x="343" y="341" style="fill:#FFFFFF;" width="16" height="16"/>
	<rect x="375" y="341" style="fill:#FFFFFF;" width="16" height="16"/>
	<rect x="391" y="453" style="fill:#FFFFFF;" width="16" height="16"/>
	<rect x="359" y="453" style="fill:#FFFFFF;" width="16" height="16"/>
</g>
</svg>
