<?xml version="1.0" encoding="iso-8859-1"?>
<!-- Generator: Adobe Illustrator 21.0.0, SVG Export Plug-In . SVG Version: 6.00 Build 0)  -->
<svg version="1.1" id="Layer_1" xmlns="http://www.w3.org/2000/svg" xmlns:xlink="http://www.w3.org/1999/xlink" x="0px" y="0px"
	 viewBox="0 0 841.89 595.276" style="enable-background:new 0 0 841.89 595.276;" xml:space="preserve">
<g>
	<path style="fill:#FFFFFF;" d="M697.245,446.711c-14.522,0-26.329,11.807-26.329,26.329c0,14.51,11.807,26.318,26.329,26.318
		c14.51,0,26.318-11.808,26.318-26.318C723.563,458.518,711.755,446.711,697.245,446.711L697.245,446.711z"/>
	<path style="fill:#FFFFFF;" d="M174.375,446.711c-14.51,0-26.318,11.807-26.318,26.329c0,14.51,11.808,26.318,26.318,26.318
		c14.522,0,26.329-11.808,26.329-26.318C200.704,458.518,188.897,446.711,174.375,446.711L174.375,446.711z"/>
	<path style="fill:#FFFFFF;" d="M807.611,274.806l-100.154-44.518L634.145,71.45c-9.316-20.186-29.697-33.226-51.93-33.226H43.666
		C20.14,38.224,1,57.364,1,80.891V443.99c0,23.527,19.14,42.666,42.666,42.666H89.23c6.552,41.096,42.231,72.62,85.144,72.62
		c42.923,0,78.604-31.524,85.156-72.62h352.558c6.552,41.096,42.233,72.62,85.156,72.62c42.914,0,78.595-31.524,85.145-72.62h16.516
		c23.526,0,42.664-19.14,42.664-42.666V327.063C841.57,304.485,828.246,283.972,807.611,274.806L807.611,274.806z M634.907,138.077
		l41.053,88.957H551.09v-88.957H634.907z M174.375,532.044c-32.534,0-59.004-26.47-59.004-59.004
		c0-32.543,26.47-59.004,59.004-59.004s59.004,26.461,59.004,59.004C233.379,505.574,206.909,532.044,174.375,532.044
		L174.375,532.044z M697.245,532.044c-32.534,0-59.004-26.47-59.004-59.004c0-32.543,26.47-59.004,59.004-59.004
		c32.534,0,59.004,26.461,59.004,59.004C756.248,505.574,729.778,532.044,697.245,532.044L697.245,532.044z M814.337,401.323
		h-15.423c-7.527,0-13.616,6.1-13.616,13.616c0,7.518,6.089,13.616,13.616,13.616h15.423v15.434c0,8.51-6.922,15.434-15.423,15.434
		h-16.525c-6.54-41.107-42.231-72.62-85.145-72.62s-78.604,31.512-85.156,72.62H259.531c-6.552-41.107-42.233-72.62-85.156-72.62
		c-42.914,0-78.593,31.512-85.144,72.62H43.666c-8.51,0-15.434-6.924-15.434-15.434v-15.434h44.484
		c7.516,0,13.616-6.098,13.616-13.616c0-7.516-6.1-13.616-13.616-13.616H28.232V80.891c0-8.51,6.924-15.434,15.434-15.434h538.549
		c11.649,0,22.322,6.835,27.207,17.402l12.915,27.986H493.905c-15.513,0-28.136,12.625-28.136,28.136v58.1
		c0,31.533,25.653,57.186,57.186,57.186h171.399l84.561,37.588l-2.145,1.293c-12.659,7.686-20.522,21.657-20.522,36.469v27.223
		c0,7.528,6.098,13.616,13.616,13.616h44.473L814.337,401.323L814.337,401.323z M523.858,138.077v88.957h-0.903
		c-16.514,0-29.953-13.439-29.953-29.953v-58.1c0-0.495,0.406-0.903,0.903-0.903L523.858,138.077L523.858,138.077z M814.337,343.223
		H783.48v-13.607c0-5.353,2.846-10.407,7.419-13.19l15.647-9.495c4.911,5.417,7.791,12.545,7.791,20.132V343.223z"/>
	<path style="fill:#FFFFFF;" d="M595.575,401.323h-319.53c-7.516,0-13.616,6.1-13.616,13.616c0,7.518,6.1,13.616,13.616,13.616
		h319.53c7.516,0,13.616-6.098,13.616-13.616C609.191,407.423,603.091,401.323,595.575,401.323L595.575,401.323z"/>
	<path style="fill:#FFFFFF;" d="M217.956,96.325c-7.527,0-13.616,6.089-13.616,13.616v59.004h-16.349v-59.004
		c0-7.528-6.089-13.616-13.616-13.616c-7.516,0-13.616,6.089-13.616,13.616v59.004h-16.337v-59.004
		c0-7.528-6.098-13.616-13.616-13.616c-7.516,0-13.616,6.089-13.616,13.616v87.139c0,23.527,19.14,42.666,42.666,42.666h0.903
		v117.093c0,7.528,6.1,13.616,13.616,13.616c7.527,0,13.616-6.089,13.616-13.616V239.747h0.915c23.527,0,42.666-19.14,42.666-42.666
		v-87.139C231.572,102.413,225.472,96.325,217.956,96.325L217.956,96.325z M204.34,197.08c0,8.51-6.924,15.434-15.434,15.434h-29.05
		c-8.51,0-15.434-6.924-15.434-15.434v-0.903h59.918L204.34,197.08L204.34,197.08z"/>
	<path style="fill:#FFFFFF;" d="M276.045,370.455c7.518,0,13.616-6.089,13.616-13.616v-59.004H317
		c8.288,0,16.108-3.624,21.471-9.944c5.353-6.322,7.641-14.637,6.286-22.819l-24.051-144.264
		c-2.358-14.193-14.522-24.484-28.971-24.484c-16.16,0-29.307,13.137-29.307,29.298v231.217
		C262.429,364.367,268.529,370.455,276.045,370.455L276.045,370.455z M289.661,125.622c0-1.144,0.93-2.065,2.147-2.065
		c1.019,0,1.879,0.726,2.038,1.727l24.051,144.266c0.016,0.113,0.07,0.415-0.204,0.735c-0.275,0.318-0.576,0.318-0.692,0.318
		h-27.339V125.622H289.661z"/>
</g>
</svg>
