<?xml version="1.0" encoding="UTF-8"?>
<!DOCTYPE svg PUBLIC "-//W3C//DTD SVG 1.1//EN" "http://www.w3.org/Graphics/SVG/1.1/DTD/svg11.dtd">
<!-- Creator: CorelDRAW X8 -->
<svg xmlns="http://www.w3.org/2000/svg" xml:space="preserve" width="80mm" height="80mm" version="1.1" style="shape-rendering:geometricPrecision; text-rendering:geometricPrecision; image-rendering:optimizeQuality; fill-rule:evenodd; clip-rule:evenodd"
viewBox="0 0 8000 8000"
 xmlns:xlink="http://www.w3.org/1999/xlink">
 <defs>
  <style type="text/css">
   <![CDATA[
    .fil0 {fill:#D2D3D5;fill-rule:nonzero}
    .fil1 {fill:#2E3092;fill-rule:nonzero}
    .fil2 {fill:#ED1550;fill-rule:nonzero}
   ]]>
  </style>
 </defs>
 <g id="Layer_x0020_1">
  <metadata id="CorelCorpID_0Corel-Layer"/>
  <g id="_2236599828032">
   <path class="fil0" d="M3303 2722l1141 630 67 -491c693,94 1417,23 1333,861 -16,159 -29,294 261,329 429,53 899,-346 1304,-218 126,-834 352,-1366 -273,-2050 -588,-642 -1542,-836 -2349,-946 32,-211 -18,-193 -121,-22l-1363 1907zm1180 929l-1278 -704c-178,-105 -182,-258 -5,-500l1625 -2274c313,27 274,231 216,609 60,8 92,12 124,16 802,103 1587,205 2151,821 697,762 582,1524 462,2316 -11,77 -23,155 -40,280l-28 201c-383,-309 -480,-230 -960,-166 -244,34 -486,66 -675,43 -526,-64 -502,-307 -473,-595 25,-253 55,-558 -862,-708l-101 747 -156 -86z"/>
   <path class="fil0" d="M5655 4882l-67 487c-27,203 -113,316 -235,376 -112,55 -245,55 -387,35l-3050 -417c-382,-24 -526,274 -611,360 169,-267 338,-455 563,-430l3131 246c100,14 188,16 247,-13 49,-24 85,-80 100,-190l128 -939 174 177c92,93 200,145 331,154 243,15 469,-23 665,-57 97,-17 188,-32 275,-40 221,-21 396,-10 519,65 140,86 202,234 169,477l0 1c-35,257 -59,516 -96,773 -153,1055 -517,2106 -2375,1838l-5004 -673c27,4 38,5 0,0 789,108 2342,162 3535,257 988,78 2013,215 2700,-85 515,-225 816,-769 903,-1372 21,-144 12,-101 28,-244 54,-466 86,-832 -468,-780 -76,7 -52,8 -146,24 -209,36 -450,77 -721,59 -109,-7 -213,-36 -308,-89z"/>
   <path class="fil1" d="M3266 3001l1057 409 0 -431c608,0 1223,-146 1250,586 5,139 9,256 263,253 375,-6 733,-405 1097,-342 11,-733 144,-1218 -475,-1733 -582,-485 -1426,-540 -2135,-540 2,-186 -38,-164 -107,-5l-950 1803zm1125 662l-1183 -457c-166,-69 -187,-201 -63,-430l1133 -2150c273,-13 263,168 258,499 52,0 80,0 108,0 703,-5 1391,-10 1950,455 690,575 680,1244 670,1941 -1,68 -2,136 -2,246l0 176c-367,-221 -441,-142 -847,-29 -207,57 -411,113 -577,115 -461,7 -468,-206 -477,-457 -8,-220 -18,-487 -825,-508l0 655 -145 -56z"/>
   <path class="fil2" d="M5545 4586l0 428c0,177 -60,285 -158,351 -90,60 -205,76 -329,76l-2677 -2c-332,25 -421,298 -484,382 114,-249 237,-432 434,-436l2727 -156c87,0 163,-8 211,-40 39,-26 64,-79 64,-175l0 -824 171 131c90,70 189,102 303,94 211,-15 401,-75 566,-127 82,-26 158,-50 233,-67 187,-43 339,-54 454,-4 131,57 201,177 201,391l1 0c0,226 10,452 8,678 -8,927 -198,1875 -1831,1862l-4390 8c100,-54 186,-124 263,-206 692,0 1774,71 2813,12 860,-49 1759,-51 2316,-390 417,-255 613,-758 617,-1288 1,-127 -2,-89 -4,-214 -9,-407 -24,-726 -496,-617 -64,15 -43,13 -122,38 -176,55 -379,119 -614,136 -95,7 -188,-6 -277,-41z"/>
  </g>
 </g>
</svg>
