<?xml version="1.0" encoding="iso-8859-1"?>
<!-- Generator: Adobe Illustrator 21.0.0, SVG Export Plug-In . SVG Version: 6.00 Build 0)  -->
<svg version="1.1" id="Capa_1" xmlns="http://www.w3.org/2000/svg" xmlns:xlink="http://www.w3.org/1999/xlink" x="0px" y="0px"
	 viewBox="-49 141 512 512" style="enable-background:new -49 141 512 512;" xml:space="preserve">
<g>
	<path style="fill:#FFFFFF;" d="M207,357c-22.056,0-40,17.944-40,40s17.944,40,40,40s40-17.944,40-40S229.056,357,207,357z M207,421
		c-13.232,0-24-10.768-24-24s10.768-24,24-24s24,10.768,24,24S220.232,421,207,421z"/>
	<path style="fill:#FFFFFF;" d="M383,341H252.152c-2.312-1.872-4.776-3.56-7.312-5.136c21.304-16.512,34.16-41.912,34.16-69.352V149
		h-56c-39.696,0-72,32.304-72,72v130.848c-1.872,2.312-3.56,4.776-5.136,7.312C129.352,337.856,103.944,325,76.512,325H-41v56
		c0,39.704,32.304,72,72,72h130.848c2.32,1.872,4.776,3.56,7.312,5.136c-21.304,16.512-34.16,41.912-34.16,69.36V645h56
		c39.696,0,72-32.296,72-72V442.152c1.872-2.32,3.56-4.776,5.136-7.312c16.512,21.304,41.912,34.16,69.352,34.16H455v-56
		C455,373.304,422.696,341,383,341z M207,453c-30.88,0-56-25.128-56-56c0-30.88,25.12-56,56-56s56,25.12,56,56
		C263,427.872,237.88,453,207,453z M223,165h40v101.512c0,25.368-13.44,48.6-35.144,61.592c-6.608-2-13.6-3.104-20.856-3.104
		c-2.704,0-5.368,0.176-8,0.472V277c0-12.52,5.984-24.488,16-32l12.8-9.6l-9.6-12.8l-12.8,9.6C191.376,242.72,183,259.464,183,277
		v52.2c-5.688,2.016-11.072,4.664-16,7.976V221C167,190.12,192.12,165,223,165z M-25,381v-40H76.512
		c25.368,0,48.6,13.44,61.592,35.144c-2,6.608-3.104,13.6-3.104,20.856c0,2.704,0.176,5.368,0.472,8H87c-12.52,0-24.488-5.984-32-16
		l-9.6-12.8l-12.8,9.6l9.6,12.8C52.72,412.624,69.464,421,87,421h52.2c2.016,5.688,4.664,11.072,7.976,16H31
		C0.12,437-25,411.872-25,381z M191,629h-40V527.496c0-25.368,13.448-48.608,35.152-61.6c6.6,2,13.6,3.104,20.848,3.104
		c2.704,0,5.368-0.176,8-0.472V517c0,12.52-5.984,24.488-16,32l-12.8,9.6l9.6,12.8l12.8-9.6c14.024-10.512,22.4-27.264,22.4-44.8
		v-52.2c5.688-2.016,11.072-4.664,16-7.976V573C247,603.872,221.88,629,191,629z M439,453H337.488
		c-25.368,0-48.6-13.44-61.592-35.144c2-6.608,3.104-13.6,3.104-20.856c0-2.704-0.176-5.368-0.472-8H327c12.52,0,24.488,5.984,32,16
		l9.6,12.8l12.8-9.592l-9.6-12.808C361.28,381.376,344.536,373,327,373h-52.2c-2.016-5.688-4.664-11.072-7.976-16H383
		c30.88,0,56,25.12,56,56V453z"/>
	<path style="fill:#FFFFFF;" d="M400.128,283.552l13.792-8.12c-26.504-45.024-67.656-80.72-115.88-100.512l-6.072,14.808
		C336.976,208.192,375.384,241.512,400.128,283.552z"/>
	<path style="fill:#FFFFFF;" d="M414.272,312.04l14.8-6.08c-2.112-5.136-4.432-10.272-6.896-15.272l-14.344,7.096
		C410.128,302.448,412.296,307.248,414.272,312.04z"/>
	<path style="fill:#FFFFFF;" d="M352.192,297.504l13.184-9.056c-17.08-24.888-40.096-45.664-66.544-60.096l-7.664,14.048
		C315.424,255.632,336.52,274.688,352.192,297.504z"/>
	<path style="fill:#FFFFFF;" d="M369.008,328.136l14.72-6.272c-2.416-5.672-5.136-11.288-8.08-16.688L361.6,312.84
		C364.304,317.792,366.792,322.936,369.008,328.136z"/>
	<path style="fill:#FFFFFF;" d="M114.312,193.072l-6.632-14.56c-55.872,25.44-99.472,70.696-122.76,127.456l14.808,6.072
		C21.464,259.064,62.16,216.816,114.312,193.072z"/>
	<path style="fill:#FFFFFF;" d="M137.48,184.056l-4.96-15.216c-4.432,1.44-8.8,3.016-13.112,4.704l5.832,14.896
		C129.272,186.864,133.344,185.4,137.48,184.056z"/>
	<path style="fill:#FFFFFF;" d="M38.352,305.168l14.048,7.664c13.232-24.256,32.296-45.368,55.128-61.032l-9.048-13.2
		C73.576,255.688,52.792,278.712,38.352,305.168z"/>
	<path style="fill:#FFFFFF;" d="M29.336,533.36l-12.688,9.752c25.856,33.648,60.2,59.92,99.32,75.968l6.072-14.8
		C85.536,589.296,53.48,564.776,29.336,533.36z"/>
	<path style="fill:#FFFFFF;" d="M10.864,505.168l-14,7.752c3.096,5.6,6.464,11.152,10,16.48l13.336-8.832
		C16.896,515.584,13.76,510.408,10.864,505.168z"/>
	<path style="fill:#FFFFFF;" d="M61.808,496.496l-13.184,9.064c17.088,24.872,40.096,45.656,66.544,60.096l7.664-14.048
		C98.584,538.368,77.48,519.312,61.808,496.496z"/>
	<path style="fill:#FFFFFF;" d="M306.2,597.832l7.096,14.344c52.472-25.96,93.592-70.048,115.784-124.136l-14.808-6.08
		C393.56,532.448,355.176,573.592,306.2,597.832z"/>
	<path style="fill:#FFFFFF;" d="M276.512,609.952l4.968,15.2c5.632-1.832,11.2-3.888,16.56-6.096l-6.096-14.8
		C286.968,606.32,281.768,608.232,276.512,609.952z"/>
	<path style="fill:#FFFFFF;" d="M375.648,488.832l-14.048-7.656c-14.76,27.056-36.472,49.872-62.776,66l8.36,13.64
		C335.872,543.224,359.544,518.336,375.648,488.832z"/>
</g>
</svg>
