<?xml version="1.0" encoding="iso-8859-1"?>
<!-- Generator: Adobe Illustrator 21.0.0, SVG Export Plug-In . SVG Version: 6.00 Build 0)  -->
<svg version="1.1" id="Capa_1" xmlns="http://www.w3.org/2000/svg" xmlns:xlink="http://www.w3.org/1999/xlink" x="0px" y="0px"
	 viewBox="-49 141 512 512" style="enable-background:new -49 141 512 512;" xml:space="preserve">
<g>
	<path style="fill:#FFFFFF;" d="M455,645H-41c-4.416,0-8-3.576-8-8s3.584-8,8-8h496c4.416,0,8,3.576,8,8S459.416,645,455,645z"/>
	<path style="fill:#FFFFFF;" d="M183,645H-25c-4.416,0-8-3.576-8-8V485c0-54.792,40.744-102.376,94.784-110.704
		c4.36-0.672,8.448,2.32,9.128,6.688c0.672,4.368-2.32,8.456-6.688,9.128C17.92,397.24-17,438.04-17,485v144h200
		c4.416,0,8,3.576,8,8S187.416,645,183,645z"/>
	<path style="fill:#FFFFFF;" d="M439,645H263c-4.416,0-8-3.576-8-8V517c0-52.936,43.064-96,96-96s96,43.064,96,96v120
		C447,641.424,443.416,645,439,645z M271,629h160V517c0-44.112-35.888-80-80-80s-80,35.888-80,80V629z"/>
	<path style="fill:#FFFFFF;" d="M351,413H63c-4.416,0-8-3.576-8-8s3.584-8,8-8h288c4.416,0,8,3.576,8,8S355.416,413,351,413z"/>
	<path style="fill:#FFFFFF;" d="M255,413c-4.416,0-8-3.576-8-8v-48c0-4.424,3.584-8,8-8s8,3.576,8,8v48
		C263,409.424,259.416,413,255,413z"/>
	<path style="fill:#FFFFFF;" d="M303,413c-4.416,0-8-3.576-8-8v-48c0-4.424,3.584-8,8-8s8,3.576,8,8v48
		C311,409.424,307.416,413,303,413z"/>
	<path style="fill:#FFFFFF;" d="M111,413c-4.416,0-8-3.576-8-8v-48c0-4.424,3.584-8,8-8s8,3.576,8,8v48
		C119,409.424,115.416,413,111,413z"/>
	<path style="fill:#FFFFFF;" d="M159,413c-4.416,0-8-3.576-8-8v-48c0-4.424,3.584-8,8-8s8,3.576,8,8v48
		C167,409.424,163.416,413,159,413z"/>
	<path style="fill:#FFFFFF;" d="M207,413c-4.416,0-8-3.576-8-8v-48c0-4.424,3.584-8,8-8c4.416,0,8,3.576,8,8v48
		C215,409.424,211.416,413,207,413z"/>
	<path style="fill:#FFFFFF;" d="M439,525H263c-4.416,0-8-3.576-8-8s3.584-8,8-8h176c4.416,0,8,3.576,8,8S443.416,525,439,525z"/>
	<path style="fill:#FFFFFF;" d="M383.552,443.24c-4.28,0-7.832-3.392-7.992-7.704L367.296,213h-32.584l-3.072,83.896
		c-0.16,4.416-3.752,8.08-8.288,7.696c-4.416-0.16-7.864-3.864-7.704-8.288l3.352-91.6c0.168-4.296,3.696-7.704,8-7.704h48
		c4.304,0,7.832,3.408,8,7.704l8.56,230.24c0.168,4.416-3.288,8.128-7.696,8.288C383.752,443.24,383.656,443.24,383.552,443.24z"/>
	<path style="fill:#FFFFFF;" d="M367,181c-4.416,0-8-3.576-8-8v-16c0-4.424,3.584-8,8-8s8,3.576,8,8v16
		C375,177.424,371.416,181,367,181z"/>
	<path style="fill:#FFFFFF;" d="M335,181c-4.416,0-8-3.576-8-8v-16c0-4.424,3.584-8,8-8s8,3.576,8,8v16
		C343,177.424,339.416,181,335,181z"/>
	<path style="fill:#FFFFFF;" d="M376.2,245h-50.4c-4.416,0-8-3.576-8-8s3.584-8,8-8h50.4c4.416,0,8,3.576,8,8S380.616,245,376.2,245
		z"/>
	<path style="fill:#FFFFFF;" d="M351,645H63c-4.416,0-8-3.576-8-8v-92.32c0-4.424,3.584-8,8-8s8,3.576,8,8V629h280
		c4.416,0,8,3.576,8,8S355.416,645,351,645z"/>
	<path style="fill:#FFFFFF;" d="M63,481.32c-4.416,0-8-3.576-8-8V381c0-83.816,68.184-152,152-152
		c40.528,0,78.704,15.808,107.488,44.504C343.2,302.296,359,340.472,359,381v48c0,4.424-3.584,8-8,8s-8-3.576-8-8v-48
		c0-36.264-14.144-70.432-39.824-96.184C277.432,259.152,243.272,245,207,245c-74.992,0-136,61.008-136,136v92.32
		C71,477.744,67.416,481.32,63,481.32z"/>
	<path style="fill:#FFFFFF;" d="M183,645c-4.416,0-8-3.576-8-8V533h-34.8c-4.416,0-8-3.576-8-8s3.584-8,8-8H183c4.416,0,8,3.576,8,8
		v112C191,641.424,187.416,645,183,645z"/>
	<path style="fill:#FFFFFF;" d="M49.8,533H-25c-4.416,0-8-3.576-8-8s3.584-8,8-8h74.8c4.416,0,8,3.576,8,8S54.216,533,49.8,533z"/>
	<path style="fill:#FFFFFF;" d="M215,645c-4.416,0-8-3.576-8-8V517c0-8.824-7.176-16-16-16h-50.8c-4.416,0-8-3.576-8-8s3.584-8,8-8
		H191c17.648,0,32,14.352,32,32v120C223,641.424,219.416,645,215,645z"/>
	<path style="fill:#FFFFFF;" d="M49.8,501H-25c-4.416,0-8-3.576-8-8s3.584-8,8-8h74.8c4.416,0,8,3.576,8,8S54.216,501,49.8,501z"/>
	<path style="fill:#FFFFFF;" d="M95,564.976c-14.336,0-28.68-5.464-39.6-16.376C44.824,538.024,39,523.96,39,509
		c0-14.96,5.824-29.016,16.4-39.592c21.832-21.832,57.36-21.832,79.192,0C145.176,479.984,151,494.04,151,509
		c0,14.96-5.824,29.024-16.4,39.6l0,0C123.68,559.512,109.336,564.976,95,564.976z M95,469.024c-10.24,0-20.488,3.896-28.288,11.696
		C59.16,488.272,55,498.32,55,509c0,10.688,4.16,20.736,11.712,28.288c15.592,15.592,40.968,15.592,56.568,0
		c7.56-7.552,11.72-17.6,11.72-28.288c0-10.68-4.16-20.728-11.712-28.28C115.488,472.92,105.24,469.024,95,469.024z"/>
	<path style="fill:#FFFFFF;" d="M95,533c-6.152,0-12.296-2.344-16.976-7.024l0,0C73.496,521.448,71,515.416,71,509
		c0-6.416,2.496-12.448,7.024-16.968c9.36-9.36,24.592-9.36,33.952,0C116.504,496.552,119,502.584,119,509
		c0,6.416-2.496,12.448-7.016,16.976C107.296,530.656,101.152,533,95,533z M89.336,514.664c3.128,3.128,8.2,3.128,11.328,0
		C102.168,513.16,103,511.152,103,509c0-2.144-0.832-4.152-2.336-5.656c-3.128-3.128-8.2-3.128-11.328,0
		C87.832,504.848,87,506.856,87,509C87,511.152,87.832,513.16,89.336,514.664z"/>
	<path style="fill:#FFFFFF;" d="M223,613h-48c-4.416,0-8-3.576-8-8s3.584-8,8-8h48c4.416,0,8,3.576,8,8S227.416,613,223,613z"/>
	<path style="fill:#FFFFFF;" d="M61.056,550.944c-2.048,0-4.096-0.784-5.656-2.344c-3.128-3.128-3.128-8.184,0-11.312l22.624-22.624
		c3.128-3.128,8.184-3.128,11.312,0s3.128,8.184,0,11.312L66.712,548.6C65.152,550.168,63.104,550.944,61.056,550.944z"/>
	<path style="fill:#FFFFFF;" d="M128.944,550.944c-2.048,0-4.096-0.784-5.656-2.344l-22.624-22.624
		c-3.128-3.128-3.128-8.184,0-11.312c3.128-3.128,8.184-3.128,11.312,0l22.624,22.624c3.128,3.128,3.128,8.184,0,11.312
		C133.032,550.168,130.992,550.944,128.944,550.944z"/>
	<path style="fill:#FFFFFF;" d="M106.32,505.688c-2.048,0-4.096-0.784-5.656-2.344c-3.128-3.128-3.128-8.184,0-11.312l22.624-22.624
		c3.128-3.128,8.184-3.128,11.312,0s3.128,8.184,0,11.312l-22.624,22.624C110.416,504.904,108.368,505.688,106.32,505.688z"/>
	<path style="fill:#FFFFFF;" d="M83.68,505.688c-2.048,0-4.096-0.784-5.656-2.344L55.4,480.72c-3.128-3.128-3.128-8.184,0-11.312
		s8.184-3.128,11.312,0l22.624,22.624c3.128,3.128,3.128,8.184,0,11.312C87.776,504.904,85.728,505.688,83.68,505.688z"/>
</g>
</svg>
